<?xml version="1.0" encoding="UTF-8" standalone="no"?>
<!-- Created with Inkscape (http://www.inkscape.org/) -->

<svg
   version="1.1"
   id="svg2"
   xml:space="preserve"
   width="533.33331"
   height="201.73199"
   viewBox="0 0 533.33331 201.73199"
   sodipodi:docname="epoch-logo.svg"
   inkscape:version="1.1.2 (0a00cf5339, 2022-02-04, custom)"
   xmlns:inkscape="http://www.inkscape.org/namespaces/inkscape"
   xmlns:sodipodi="http://sodipodi.sourceforge.net/DTD/sodipodi-0.dtd"
   xmlns="http://www.w3.org/2000/svg"
   xmlns:svg="http://www.w3.org/2000/svg"><defs
     id="defs6"><linearGradient
       x1="0"
       y1="0"
       x2="1"
       y2="0"
       gradientUnits="userSpaceOnUse"
       gradientTransform="matrix(80.538193,0,0,-80.538193,31.65472,73.92067)"
       spreadMethod="pad"
       id="linearGradient28"><stop
         style="stop-opacity:1;stop-color:#5bc2ee"
         offset="0"
         id="stop22" /><stop
         style="stop-opacity:1;stop-color:#00a6b5"
         offset="0.509541"
         id="stop24" /><stop
         style="stop-opacity:1;stop-color:#009b4c"
         offset="1"
         id="stop26" /></linearGradient><clipPath
       clipPathUnits="userSpaceOnUse"
       id="clipPath42"><path
         d="M 0,151.299 H 400 V 0 H 0 Z"
         id="path40" /></clipPath></defs><sodipodi:namedview
     id="namedview4"
     pagecolor="#ffffff"
     bordercolor="#666666"
     borderopacity="1.0"
     inkscape:pageshadow="2"
     inkscape:pageopacity="0.0"
     inkscape:pagecheckerboard="0"
     showgrid="false"
     inkscape:zoom="0.91899651"
     inkscape:cx="347.66182"
     inkscape:cy="100.65327"
     inkscape:window-width="1366"
     inkscape:window-height="750"
     inkscape:window-x="0"
     inkscape:window-y="18"
     inkscape:window-maximized="1"
     inkscape:current-layer="g38" /><g
     id="g8"
     inkscape:groupmode="layer"
     inkscape:label="Epoch Web"
     transform="matrix(1.3333333,0,0,-1.3333333,0,201.732)"><g
       id="g10"><g
         id="g12"><g
           id="g18"><g
             id="g20"><path
               d="M 31.655,72.729 V 55.064 l 80.538,40.744 v 17.664 z m 72.868,-7.902 V 82.541 L 31.655,45.17 V 27.456 Z M 31.655,82.088 v 17.816 l 38.874,20.481 v -17.816 z"
               style="fill:url(#linearGradient28);stroke:none"
               id="path30" /></g></g></g></g><g
       id="g32"
       transform="translate(139.9906,50.5832)"
       style="fill:#ffffff;fill-opacity:1"><path
         d="M 0,0 H 13.21 V 8.996 H 0 v 13.301 h 22.584 v 9.092 h -32.92 v -54.356 h 34.164 v 9.091 H 0 Z"
         style="fill:#ffffff;fill-opacity:1;fill-rule:nonzero;stroke:none"
         id="path34" /></g><g
       id="g36"><g
         id="g38"
         clip-path="url(#clipPath42)"><g
           id="g44"
           transform="translate(190.8031,57.9519)"
           style="fill:#ffffff;fill-opacity:1"><path
             d="m 0,0 h -5.55 v 15.025 h 6.22 c 5.933,0 8.708,-2.393 8.708,-7.273 C 9.378,1.914 4.211,0 0,0 M 0.575,24.02 H -15.886 V -30.335 H -5.55 v 21.627 h 4.785 c 9.857,0 21.148,4.785 21.148,16.46 0,10.048 -8.038,16.268 -19.808,16.268"
             style="fill:#ffffff;fill-opacity:1;fill-rule:nonzero;stroke:none"
             id="path46" /></g><g
           id="g48"
           transform="translate(358.0096,81.9718)"
           style="fill:#ffffff;fill-opacity:1"><path
             d="M 0,0 V -22.488 H -25.168 V 0 h -10.335 v -54.355 h 10.335 v 22.966 H 0 V -54.355 H 10.336 V 0 Z"
             style="fill:#ffffff;fill-opacity:1;fill-rule:nonzero;stroke:none"
             id="path50" /></g><g
           id="g52"
           transform="translate(243.3938,38.0896)"
           style="fill:#ffffff;fill-opacity:1"><path
             d="m 0,0 c -9.277,0 -16.798,7.521 -16.798,16.798 0,9.277 7.521,16.797 16.798,16.797 9.277,0 16.798,-7.52 16.798,-16.797 C 16.798,7.521 9.277,0 0,0 m 0,44.069 c -15.061,0 -27.271,-12.21 -27.271,-27.271 0,-15.062 12.21,-27.271 27.271,-27.271 15.061,0 27.271,12.209 27.271,27.271 0,15.061 -12.21,27.271 -27.271,27.271"
             style="fill:#ffffff;fill-opacity:1;fill-rule:nonzero;stroke:none"
             id="path54" /></g><g
           id="g56"
           transform="translate(304.0833,38.0896)"
           style="fill:#ffffff;fill-opacity:1"><path
             d="m 0,0 c -9.277,0 -16.798,7.521 -16.798,16.798 0,9.277 7.521,16.797 16.798,16.797 3.588,0 6.913,-1.126 9.643,-3.042 v 11.76 C 6.645,43.446 3.395,44.069 0,44.069 c -15.061,0 -27.271,-12.21 -27.271,-27.271 0,-15.062 12.21,-27.271 27.271,-27.271 3.395,0 6.645,0.622 9.643,1.756 V 3.043 C 6.913,1.126 3.588,0 0,0"
             style="fill:#ffffff;fill-opacity:1;fill-rule:nonzero;stroke:none"
             id="path58" /></g></g></g></g></svg>
